<?xml version="1.0" encoding="UTF-8"?>
<!DOCTYPE svg PUBLIC "-//W3C//DTD SVG 1.1//EN" "http://www.w3.org/Graphics/SVG/1.1/DTD/svg11.dtd">
<!-- Creator: CorelDRAW 2020 (64-Bit) -->
<svg xmlns="http://www.w3.org/2000/svg" xml:space="preserve" width="3.14961in" height="3.14961in" version="1.1" style="shape-rendering:geometricPrecision; text-rendering:geometricPrecision; image-rendering:optimizeQuality; fill-rule:evenodd; clip-rule:evenodd"
viewBox="0 0 3149.61 3149.61"
 xmlns:xlink="http://www.w3.org/1999/xlink"
 xmlns:xodm="http://www.corel.com/coreldraw/odm/2003">
 <defs>
  <style type="text/css">
   <![CDATA[
    .fil0 {fill:#2B2A29;fill-rule:nonzero}
   ]]>
  </style>
 </defs>
 <g id="Layer_x0020_1">
  <metadata id="CorelCorpID_0Corel-Layer"/>
  <g id="_3047676742112">
   <path class="fil0" d="M829.15 809.76c-80.43,131.89 -126.78,286.88 -126.78,452.65 0,133.28 29.94,259.6 83.46,372.54 0.97,-20.33 1.81,-42.22 2.48,-66.03 0,0 33.67,-446.56 40.83,-759.16z"/>
   <path class="fil0" d="M1065.86 1005.59c0,0 60.73,-249.17 52.93,-486.18 -67.85,41.53 -129.59,92.27 -183.52,150.3 5.18,99.22 -5.98,198.78 -17.13,283.92 -15.95,121.81 -63.88,493.13 -55.88,558.98 0,0 3.37,107.39 -18.42,225.89 16.16,24.67 33.54,48.48 52.04,71.41 75.98,-155.69 62.17,-135.19 90.15,-323.37 29.94,-201.56 63.87,-377.23 79.84,-480.96z"/>
   <path class="fil0" d="M1271.89 1193.07c0,0 97.83,-237.53 103.8,-500.95 2.45,-107.38 9.21,-202.6 12.3,-280.8 -55.84,11.99 -109.67,29.54 -160.97,51.78 3.39,126.67 -17.53,255.43 -19.01,362.81 -2,145.61 -59.88,271.41 -91.81,451.08 -30.57,171.85 -106.85,404.17 -179.83,579.49 17.67,18.94 36.2,37.01 55.45,54.39 38.47,-93.13 69.89,-173.06 82.45,-210.59 33.92,-101.82 175.65,-467.24 197.62,-507.2z"/>
   <path class="fil0" d="M1652.3 704.11c-8.72,-138.83 -20.59,-238.39 -34.39,-311.55 -14.79,-0.7 -29.64,-1.04 -44.61,-1.04 -25.4,0 -50.58,1.04 -75.43,3.3 12.63,60.99 12.25,127.71 6.69,223.46 -11.97,205.56 -49.89,421.19 -99.83,548.91 0,0 -159.7,405.21 -215.57,517.11 -22.26,44.48 -71.69,161.08 -115.62,291.57 14.82,10.43 29.97,20.33 45.46,29.71 45.02,-119.89 89.5,-252.99 183.94,-393.22 0,0 375.3,-495.04 349.34,-908.24z"/>
   <path class="fil0" d="M1861.89 1458.58c-71.85,19.98 -59.88,39.97 -261.49,149.78 -201.63,109.81 -193.65,97.82 -61.87,-37.88 131.73,-135.7 305.42,-273.5 265.48,-415.28 -39.94,-141.79 -39.94,-111.73 -67.87,-157.6 0,0 -43.93,-62.03 -43.93,77.85 0,139.7 -121.75,399.13 -221.58,492.95 -99.82,93.83 -235.57,271.59 -209.61,355.34l21.96 23.98c0,0 53.9,-173.59 193.64,-217.55 139.72,-43.96 361.3,-133.8 459.13,-73.85 71.03,43.44 163.11,154.3 186.81,282.01 17.43,-14.07 34.33,-29.02 50.62,-44.48 -0.37,-27.63 -4.4,-57.17 -13.85,-87.75 -47.89,-155.86 -225.56,-367.33 -297.44,-347.52z"/>
   <path class="fil0" d="M1835.96 1281c0,0 -75.87,77.85 15.95,117.81 91.85,39.96 7.98,-151.69 -15.95,-117.81z"/>
   <path class="fil0" d="M1955.7 1023.48c-115.78,-243.61 -109.76,-333.44 -129.73,-409.2 0,0 -25.41,-94 -57.25,-200.69 -26.12,-6.08 -52.67,-10.77 -79.6,-14.42 8.06,23.8 15.28,47.26 21.08,69.33 35.92,137.79 21.93,381.23 79.84,471.06 0,0 61.87,109.81 91.85,237.7 29.94,127.71 55.86,123.72 145.71,225.54 76.66,86.88 198.38,217.37 237.39,389.05 19.55,-25.54 37.67,-52.13 54.33,-79.76 -2.71,-13.2 -6.08,-25.89 -10.27,-37.88 -51.9,-147.7 -237.53,-407.12 -353.36,-650.73z"/>
   <path class="fil0" d="M1974.31 489.18c-42.94,-22.42 -88.03,-41.18 -134.78,-56.13 52.72,276.8 106.06,429.53 221.98,582.44 99.44,131.02 279.44,411.81 334.8,532.57 19.03,-54.74 32.74,-112.07 40.52,-171.33 -23.79,-58.56 -64.06,-131.88 -130.41,-228.15 -211.46,-306.86 -274.37,-478.01 -332.11,-659.41z"/>
   <path class="fil0" d="M2074.92 550.34c92.25,237.36 244.65,514.68 353.93,619.45 4,4 7.89,7.82 11.68,11.64 -24.08,-260.64 -162.97,-488.09 -365.61,-631.09z"/>
   <path class="fil0" d="M1994.31 1785.25c-131.57,-131.54 -473.76,-46.05 -546.14,72.46 -55.05,90.01 -182.36,164.9 -240.22,195.48 26,12.16 52.67,22.94 79.93,32.32 102.02,-22.41 474.22,-191.83 634.07,-148.91 43.89,11.82 76.96,38.4 101.86,71.42 23.67,-14.42 46.58,-29.71 68.7,-46.22 -19.36,-63.07 -49.92,-128.24 -98.19,-176.54z"/>
   <path class="fil0" d="M1513.2 2103.75c-16.94,8 -32.23,15.81 -46.01,23.28 34.75,4.17 70.2,6.43 106.11,6.43 126.38,0 246.46,-26.93 354.85,-75.41 -16.89,-10.25 -33.33,-18.77 -47.65,-23.63 -63.87,-21.2 -244.86,10.77 -367.31,69.33z"/>
   <path class="fil0" d="M712.72 2266.74l0 59.75c0,2.43 1.11,3.48 3.69,3.48l40.24 0c2.59,0 3.69,-1.04 3.69,-3.48l0 -18.76c0,-1.39 0.74,-2.08 2.22,-2.08l63.87 0 0 0.69 -116.29 148.35c-1.11,1.04 -1.48,2.78 -1.48,4.52l0 36.83c0,2.43 1.11,3.48 3.69,3.48l171.3 0c2.58,0 3.69,-1.04 3.69,-3.48l0 -61.15c0,-2.43 -1.11,-3.47 -3.69,-3.47l-40.98 0c-2.58,0 -3.69,1.04 -3.69,3.47l0 20.15c0,1.39 -0.74,2.09 -2.21,2.09l-67.56 0 0 -0.7 117.03 -149.04c0.74,-1.04 1.11,-2.43 1.11,-3.47l0 -37.17c0,-2.43 -1.11,-3.48 -3.69,-3.48l-167.24 0c-2.58,0 -3.69,1.04 -3.69,3.48zm228.15 72.96c-13.66,8.34 -22.89,20.15 -28.06,35.44 -4.06,11.11 -5.91,24.66 -5.91,40.3 0,14.94 2.22,28.14 6.28,39.95 5.17,15.29 14.4,27.1 28.06,35.44 13.66,8.34 30.64,12.51 50.95,12.51 31.75,0 56.85,-9.38 75.68,-28.14 1.85,-1.74 1.85,-3.13 0,-4.86l-24.73 -21.54c-1.85,-1.39 -3.69,-1.39 -5.54,0.35 -11.44,9.73 -25.11,14.59 -40.24,14.59 -19.94,0 -32.49,-7.3 -37.29,-21.54 -1.48,-4.17 -2.22,-7.64 -2.22,-10.07 0,-1.39 0.74,-2.08 2.22,-2.08l108.17 0c2.58,0 3.69,-1.04 3.69,-3.48 0,-22.58 -1.84,-39.95 -5.91,-51.76 -5.17,-14.94 -14.4,-26.75 -27.32,-35.09 -13.29,-7.99 -29.91,-12.16 -49.47,-12.16 -18.83,0 -35.07,4.17 -48.37,12.16zm78.64 43.43c1.11,3.82 1.85,7.99 1.85,12.51 0,1.39 -0.74,2.08 -2.22,2.08l-59.07 0c-1.48,0 -2.22,-0.69 -2.22,-2.08 0,-4.52 0.74,-8.69 1.85,-12.51 4.06,-12.16 14.03,-18.41 29.9,-18.41 15.88,0 25.84,6.26 29.91,18.41zm76.05 -116.38l0 33.35c0,2.43 1.11,3.47 3.69,3.47l14.4 0c1.48,0 2.22,0.7 2.22,2.09l0 151.47c0,1.39 -0.74,2.08 -2.22,2.08l-14.4 0c-2.59,0 -3.69,1.04 -3.69,3.48l0 33.35c0,2.43 1.11,3.48 3.69,3.48l64.24 0c2.59,0 3.69,-1.04 3.69,-3.48l0 -12.16 0.37 0c9.23,12.85 24.73,19.46 46.52,19.46 31.01,0 51.31,-13.55 60.54,-40.3 4.06,-12.51 6.28,-28.49 6.28,-47.59 0,-19.8 -2.21,-35.44 -6.28,-47.6 -9.23,-26.75 -29.53,-40.3 -60.54,-40.3 -21.78,0 -37.29,6.6 -46.52,19.46l-0.37 0 0 -80.25c0,-2.43 -1.11,-3.48 -3.69,-3.48l-64.24 0c-2.59,0 -3.69,1.04 -3.69,3.48zm129.95 119.86c2.21,6.6 3.32,16.33 3.32,28.83 0,12.51 -1.11,22.23 -3.32,28.83 -4.06,12.16 -13.29,18.06 -27.69,18.06 -14.03,0 -23.26,-5.91 -27.32,-18.06 -2.22,-6.6 -3.32,-16.33 -3.32,-28.83 0,-12.51 1.11,-22.24 3.32,-28.83 4.06,-12.16 12.92,-18.07 27.32,-18.07 14.4,0 23.63,5.91 27.69,18.07zm150.99 -35.09l-0.37 0 0 -16.68c0,-2.43 -1.11,-3.47 -3.69,-3.47l-64.24 0c-2.58,0 -3.69,1.04 -3.69,3.47l0 33.35c0,2.43 1.11,3.48 3.69,3.48l14.4 0c1.48,0 2.21,0.69 2.21,2.08l0 83.38c0,1.39 -0.74,2.08 -2.21,2.08l-14.4 0c-2.58,0 -3.69,1.04 -3.69,3.48l0 33.35c0,2.43 1.11,3.48 3.69,3.48l85.65 0c2.59,0 3.69,-1.04 3.69,-3.48l0 -33.35c0,-2.43 -1.11,-3.48 -3.69,-3.48l-15.5 0c-1.48,0 -2.21,-0.7 -2.21,-2.08l0 -44.81c0,-25.36 11.81,-38.22 35.81,-38.22 5.91,0 12.93,1.04 21.41,3.13 3.32,0.69 4.8,-0.35 4.8,-3.48l0 -39.26c0,-2.08 -1.11,-3.48 -3.69,-3.82 -4.43,-1.05 -9.6,-1.39 -15.88,-1.39 -19.2,0 -33.22,7.29 -42.09,22.23zm91.19 -12.16c-1.85,0.69 -2.95,2.08 -2.95,4.52l0 37.17c0,2.43 1.11,3.48 3.69,3.48l39.5 0c2.59,0 3.69,-1.04 3.69,-3.48l0 -12.16c0,-1.39 0.74,-2.08 1.85,-2.43 4.06,-1.04 9.6,-1.74 15.87,-1.74 11.81,0 19.94,2.09 24.37,5.91 4.43,4.17 6.65,10.42 6.65,18.76l0 6.26c0,1.39 -0.74,2.08 -2.21,2.08l-31.75 0c-22.89,0 -40.98,4.52 -53.9,13.2 -12.93,9.04 -19.57,22.58 -19.57,40.65 0,17.02 5.54,29.88 16.61,38.56 11.07,8.69 25.11,13.2 42.09,13.2 22.52,0 38.76,-6.26 48.73,-18.41l0.37 0 0 11.12c0,2.43 1.11,3.48 3.69,3.48l60.55 0c2.59,0 3.69,-1.04 3.69,-3.48l0 -33.35c0,-2.43 -1.11,-3.48 -3.69,-3.48l-13.66 0c-1.47,0 -2.21,-0.7 -2.21,-2.08l0 -68.79c0,-21.19 -5.91,-36.83 -17.72,-46.56 -11.81,-9.38 -32.12,-14.24 -60.55,-14.24 -22.52,0 -43.56,3.82 -63.13,11.81zm92.67 92.76l0 11.46c0,15.63 -11.07,23.63 -33.22,23.63 -16.98,0 -25.47,-6.26 -25.47,-18.41 0,-12.51 10.33,-18.76 31.38,-18.76l25.11 0c1.47,0 2.21,0.69 2.21,2.08zm100.79 -114.99c-4.43,12.85 -6.65,34.39 -6.65,64.62 0,32.31 2.22,54.54 6.65,66.7 12.92,36.48 43.56,54.89 91.93,54.89 31.75,0 57.96,-6.26 78.27,-18.76 1.85,-1.04 2.95,-2.78 2.95,-4.87l0 -50.37c0,-2.43 -1.11,-3.47 -3.69,-3.47l-40.98 0c-2.58,0 -3.69,1.04 -3.69,3.47l0 21.19c0,1.39 -0.74,2.43 -2.22,3.13 -7.38,3.13 -16.61,4.86 -27.32,4.86 -12.19,0 -21.78,-2.08 -28.06,-6.6 -6.65,-4.52 -11.44,-11.11 -14.77,-19.8 -2.95,-8.34 -4.43,-25.36 -4.43,-50.72 0,-23.97 1.48,-40.65 4.43,-50.72 6.28,-17.72 20.67,-26.41 42.83,-26.41 10.34,0 19.57,1.74 27.32,5.21 1.48,0.35 2.22,1.39 2.22,3.13l0 20.5c0,2.43 1.11,3.47 3.69,3.47l40.98 0c2.59,0 3.69,-1.04 3.69,-3.47l0 -50.03c0,-2.08 -1.11,-3.82 -2.95,-4.86 -20.31,-12.51 -46.15,-18.76 -77.53,-18.76 -48,0 -79.01,19.11 -92.67,57.67zm208.96 57.67c-4.06,11.81 -5.91,25.36 -5.91,40.65 0,15.28 1.85,28.83 5.91,40.65 5.17,14.94 14.77,26.75 28.43,34.74 13.66,8.34 29.91,12.51 48.73,12.51 18.83,0 35.44,-4.17 49.1,-12.51 13.66,-7.99 22.89,-19.8 28.06,-34.74 4.06,-11.81 5.91,-25.36 5.91,-40.65 0,-15.29 -1.85,-28.83 -5.91,-40.65 -5.17,-14.94 -14.4,-26.75 -28.06,-35.09 -13.66,-7.99 -30.28,-12.16 -49.1,-12.16 -18.83,0 -35.07,4.17 -48.73,12.16 -13.66,8.34 -23.26,20.15 -28.43,35.09zm104.85 11.81c2.22,6.6 3.32,15.98 3.32,28.83 0,12.85 -1.11,22.23 -3.32,28.83 -4.06,12.16 -13.29,18.06 -27.69,18.06 -14.4,0 -23.63,-5.91 -27.69,-18.06 -2.21,-6.6 -3.32,-15.98 -3.32,-28.83 0,-12.85 1.11,-22.24 3.32,-28.83 4.06,-12.16 13.29,-18.07 27.69,-18.07 14.4,0 23.63,5.91 27.69,18.07zm175.36 -119.86l0 33.35c0,2.43 1.11,3.47 3.69,3.47l14.4 0c1.48,0 2.21,0.7 2.21,2.09l0 41.34 -0.37 0c-9.23,-12.85 -24.73,-19.46 -46.52,-19.46 -31.01,0 -51.31,13.55 -60.55,40.3 -4.06,12.16 -6.28,27.8 -6.28,47.6 0,19.11 2.22,35.09 6.28,47.59 9.23,26.75 29.54,40.3 60.55,40.3 21.78,0 37.29,-6.6 46.52,-19.46l0.37 0 0 12.16c0,2.43 1.11,3.48 3.69,3.48l64.24 0c2.59,0 3.69,-1.04 3.69,-3.48l0 -33.35c0,-2.43 -1.11,-3.48 -3.69,-3.48l-14.4 0c-1.48,0 -2.22,-0.7 -2.22,-2.08l0 -190.38c0,-2.43 -1.11,-3.48 -3.69,-3.48l-64.24 0c-2.58,0 -3.69,1.04 -3.69,3.48zm16.98 119.86c2.22,6.6 3.32,16.33 3.32,28.83 0,12.51 -1.11,22.23 -3.32,28.83 -4.06,12.16 -13.29,18.06 -27.69,18.06 -14.4,0 -23.26,-5.91 -27.32,-18.06 -2.21,-6.6 -3.32,-16.33 -3.32,-28.83 0,-12.51 1.11,-22.24 3.32,-28.83 4.06,-12.16 13.29,-18.07 27.32,-18.07 14.4,0 23.63,5.91 27.69,18.07zm132.54 -46.9c-13.66,8.34 -22.89,20.15 -28.06,35.44 -4.06,11.11 -5.91,24.66 -5.91,40.3 0,14.94 2.22,28.14 6.28,39.95 5.17,15.29 14.4,27.1 28.06,35.44 13.66,8.34 30.64,12.51 50.95,12.51 31.75,0 56.85,-9.38 75.68,-28.14 1.85,-1.74 1.85,-3.13 0,-4.86l-24.74 -21.54c-1.85,-1.39 -3.69,-1.39 -5.54,0.35 -11.45,9.73 -25.11,14.59 -40.24,14.59 -19.94,0 -32.49,-7.3 -37.29,-21.54 -1.48,-4.17 -2.21,-7.64 -2.21,-10.07 0,-1.39 0.74,-2.08 2.21,-2.08l108.17 0c2.58,0 3.69,-1.04 3.69,-3.48 0,-22.58 -1.85,-39.95 -5.91,-51.76 -5.17,-14.94 -14.4,-26.75 -27.32,-35.09 -13.29,-7.99 -29.91,-12.16 -49.47,-12.16 -18.83,0 -35.07,4.17 -48.36,12.16zm78.64 43.43c1.11,3.82 1.85,7.99 1.85,12.51 0,1.39 -0.74,2.08 -2.22,2.08l-59.07 0c-1.48,0 -2.21,-0.69 -2.21,-2.08 0,-4.52 0.74,-8.69 1.85,-12.51 4.06,-12.16 14.03,-18.41 29.9,-18.41 15.87,0 25.84,6.26 29.91,18.41z"/>
   <path class="fil0" d="M807.67 2715.22l21.84 0 -45.31 -119.19 -24.02 0 -45.31 119.19 21.65 0 9.1 -24.32 52.96 0 9.1 24.32zm-14.92 -40.24l-41.31 0 20.75 -55.31 20.56 55.31zm49.5 -7.37c0,29.11 20.93,49.15 47.31,49.15 16.38,0 28.39,-7.19 34.76,-15.76l0 14.22 20.93 0 0 -126.72 -20.93 0 0 45.55c-7.65,-8.91 -21.48,-14.73 -34.58,-14.73 -26.57,0 -47.5,19.18 -47.5,48.29zm82.07 0.35c0,20.37 -14.74,31.85 -30.39,31.85 -15.47,0 -30.39,-11.81 -30.39,-32.2 0,-20.38 14.92,-31.33 30.39,-31.33 15.65,0 30.39,11.47 30.39,31.68zm36.39 -47.1l38.04 94.36 24.75 0 38.22 -94.36 -22.02 0 -28.39 76.89 -28.39 -76.89 -22.2 0zm158.87 14.9c15.47,0 27.66,9.25 28.03,23.8l-55.5 0c2.18,-14.9 13.46,-23.8 27.48,-23.8zm46.95 51.37l-22.38 0c-3.82,7.37 -10.92,13.19 -23.66,13.19 -15.28,0 -27.11,-9.42 -28.57,-25l76.62 0c0.54,-3.26 0.72,-6.34 0.72,-9.59 0,-27.74 -20.2,-46.41 -48.77,-46.41 -29.66,0 -50.04,19.01 -50.04,48.64 0,29.63 21.29,48.8 50.04,48.8 24.57,0 40.4,-13.19 46.04,-29.63zm43.86 -21.58c0,-20.04 9.46,-26.03 24.75,-26.03l5.28 0 0 -20.21c-14.2,0 -24.2,5.82 -30.03,15.24l0 -13.7 -20.75 0 0 94.36 20.75 0 0 -49.67zm52.41 23.46c0,19.18 11.1,26.2 28.93,26.2l16.38 0 0 -16.27 -12.74 0c-8.74,0 -11.65,-2.91 -11.65,-9.93l0 -52.23 24.39 0 0 -15.93 -24.39 0 0 -23.46 -20.93 0 0 23.46 -11.83 0 0 15.93 11.83 0 0 52.23zm64.42 26.2l20.74 0 0 -94.36 -20.74 0 0 94.36zm10.56 -106.86c7.28,0 13.1,-5.48 13.1,-12.5 0,-7.02 -5.82,-12.5 -13.1,-12.5 -7.46,0 -13.28,5.48 -13.28,12.5 0,7.02 5.82,12.5 13.28,12.5zm112.28 80.49c-1.09,-34.08 -57.69,-23.46 -57.69,-42.47 0,-6.33 5.82,-10.62 16.93,-10.62 11.28,0 18.02,5.65 18.74,13.87l20.74 0c-1.09,-18.84 -16.01,-30.31 -38.76,-30.31 -23.66,0 -38.58,12.16 -38.58,27.23 0,34.59 58.23,23.98 58.23,42.47 0,6.5 -6.37,11.3 -18.38,11.3 -11.46,0 -19.29,-6.34 -20.02,-14.04l-21.48 0c0.91,17.13 17.83,30.48 41.86,30.48 23.66,0 38.4,-11.98 38.4,-27.91zm22.39 26.37l20.74 0 0 -94.36 -20.74 0 0 94.36zm10.55 -106.86c7.28,0 13.1,-5.48 13.1,-12.5 0,-7.02 -5.82,-12.5 -13.1,-12.5 -7.46,0 -13.28,5.48 -13.28,12.5 0,7.02 5.82,12.5 13.28,12.5zm108.65 106.86l20.56 0 0 -55.66c0,-26.37 -17.65,-40.24 -41.13,-40.24 -12.01,0 -23.11,4.62 -29.84,12.33l0 -10.79 -20.75 0 0 94.36 20.75 0 0 -52.75c0,-17.3 10.01,-26.2 25.3,-26.2 15.1,0 25.11,8.9 25.11,26.2l0 52.75zm40.04 -47.61c0,29.11 20.93,49.15 47.31,49.15 16.38,0 28.39,-7.7 34.76,-15.76l0 15.76c0,18.84 -12.01,28.09 -28.03,28.09 -14.37,0 -25.48,-6.68 -28.57,-16.44l-20.56 0c2.55,20.89 22.38,33.39 49.13,33.39 31.3,0 48.95,-19.35 48.95,-45.04l0 -95.9 -20.93 0 0 13.7c-6.19,-8.05 -18.38,-15.24 -34.76,-15.24 -26.39,0 -47.31,19.18 -47.31,48.29zm82.07 0.35c0,20.37 -14.74,31.85 -30.39,31.85 -15.47,0 -30.39,-11.81 -30.39,-32.2 0,-20.38 14.92,-31.33 30.39,-31.33 15.65,0 30.39,11.47 30.39,31.68zm165.42 -71.93l-69.88 0 0 119.19 69.88 0 0 -15.93 -49.14 0 0 -36.48 43.68 0 0 -15.93 -43.68 0 0 -34.94 49.14 0 0 -15.92zm77.34 119.19l23.48 0 -32.39 -47.78 32.39 -46.58 -21.65 0 -20.39 32.03 -21.65 -32.03 -23.48 0 32.39 47.95 -32.39 46.41 21.66 0 20.38 -32.02 21.65 32.02zm59.69 -80.49l0 -13.87 -20.75 0 0 139.23 20.75 0 0 -58.57c6.55,7.37 18.38,15.24 34.94,15.24 26.39,0 47.13,-20.04 47.13,-49.15 0,-29.11 -20.75,-48.29 -47.13,-48.29 -16.38,0 -28.57,7.54 -34.94,15.41zm60.96 32.88c0,20.38 -14.93,32.2 -30.57,32.2 -15.47,0 -30.39,-11.48 -30.39,-31.85 0,-20.21 14.92,-31.68 30.39,-31.68 15.65,0 30.57,10.96 30.57,31.33zm83.89 -31.85c15.47,0 27.66,9.25 28.03,23.8l-55.5 0c2.18,-14.9 13.46,-23.8 27.48,-23.8zm46.95 51.37l-22.38 0c-3.82,7.37 -10.92,13.19 -23.66,13.19 -15.29,0 -27.12,-9.42 -28.57,-25l76.61 0c0.54,-3.26 0.73,-6.34 0.73,-9.59 0,-27.74 -20.2,-46.41 -48.77,-46.41 -29.67,0 -50.05,19.01 -50.05,48.64 0,29.63 21.29,48.8 50.05,48.8 24.57,0 40.4,-13.19 46.04,-29.63zm43.86 -21.58c0,-20.04 9.46,-26.03 24.75,-26.03l5.28 0 0 -20.21c-14.2,0 -24.2,5.82 -30.03,15.24l0 -13.7 -20.74 0 0 94.36 20.74 0 0 -49.67zm52.41 23.46c0,19.18 11.1,26.2 28.94,26.2l16.38 0 0 -16.27 -12.74 0c-8.73,0 -11.65,-2.91 -11.65,-9.93l0 -52.23 24.39 0 0 -15.93 -24.39 0 0 -23.46 -20.93 0 0 23.46 -11.83 0 0 15.93 11.83 0 0 52.23zm139.22 -0.17c-1.09,-34.08 -57.69,-23.46 -57.69,-42.47 0,-6.33 5.83,-10.62 16.93,-10.62 11.28,0 18.02,5.65 18.74,13.87l20.74 0c-1.09,-18.84 -16.01,-30.31 -38.76,-30.31 -23.66,0 -38.58,12.16 -38.58,27.23 0,34.59 58.24,23.98 58.24,42.47 0,6.5 -6.37,11.3 -18.38,11.3 -11.47,0 -19.29,-6.34 -20.02,-14.04l-21.47 0c0.91,17.13 17.83,30.48 41.85,30.48 23.66,0 38.4,-11.98 38.4,-27.91z"/>
  </g>
 </g>
</svg>
