<?xml version="1.0" encoding="UTF-8"?>
<!DOCTYPE svg PUBLIC "-//W3C//DTD SVG 1.1//EN" "http://www.w3.org/Graphics/SVG/1.1/DTD/svg11.dtd">
<!-- Creator: CorelDRAW 2020 (64-Bit) -->
<svg xmlns="http://www.w3.org/2000/svg" xml:space="preserve" width="8.26772in" height="3.14961in" version="1.1" style="shape-rendering:geometricPrecision; text-rendering:geometricPrecision; image-rendering:optimizeQuality; fill-rule:evenodd; clip-rule:evenodd"
viewBox="0 0 8267.72 3149.61"
 xmlns:xlink="http://www.w3.org/1999/xlink"
 xmlns:xodm="http://www.corel.com/coreldraw/odm/2003">
 <defs>
  <style type="text/css">
   <![CDATA[
    .fil0 {fill:#2B2A29}
   ]]>
  </style>
 </defs>
 <g id="Layer_x0020_1">
  <metadata id="CorelCorpID_0Corel-Layer"/>
  <g id="_3047810367360">
   <path class="fil0" d="M800.3 1185.94c-62.74,102.4 -99.07,224.54 -99.07,353.35 0,105.69 23.13,204.76 66.07,290.61 0,-16.5 0,-33.03 3.29,-52.86 -3.29,3.33 23.08,-346.72 29.7,-591.09z"/>
   <path class="fil0" d="M985.22 1337.83c0,0 46.24,-194.84 42.95,-379.76 -52.87,33.04 -102.39,72.66 -145.34,118.89 3.33,79.27 -3.29,155.22 -13.17,221.24 -13.21,95.78 -49.57,386.39 -42.95,439.2 0,0 3.34,82.57 -13.2,178.34 13.2,19.82 26.44,39.61 39.65,56.11 59.41,-122.14 49.54,-105.64 69.36,-254.28 23.08,-158.52 49.5,-297.2 62.7,-379.76z"/>
   <path class="fil0" d="M1147.02 1486.46c0,0 75.99,-184.97 82.61,-393 3.29,-82.57 6.58,-158.47 9.88,-221.25 -42.91,9.92 -85.86,23.09 -125.48,39.66 3.3,99.02 -13.2,201.42 -16.5,283.99 0,115.56 -46.24,211.33 -72.65,353.35 -23.13,135.39 -82.57,317.02 -142.06,452.41 13.24,13.2 29.74,29.74 42.95,42.9 29.74,-72.65 56.16,-135.39 66.03,-165.09 26.45,-75.98 138.72,-363.25 155.22,-392.96z"/>
   <path class="fil0" d="M1444.26 1103.37c-6.63,-108.98 -16.5,-188.25 -26.41,-244.37 -13.21,0 -23.11,0 -36.32,0 -19.83,0 -39.66,0 -59.45,3.3 9.92,46.24 9.92,99.06 6.58,175.04 -9.91,161.81 -39.57,330.23 -79.24,429.29 0,0 -125.51,317.02 -168.42,406.17 -16.5,36.32 -56.11,125.47 -89.19,227.91 13.24,6.59 23.16,16.5 36.37,23.09 36.32,-92.44 69.36,-198.17 145.3,-307.15 -3.33,-3.25 290.61,-389.67 270.78,-713.28z"/>
   <path class="fil0" d="M1609.35 1694.5c-56.12,16.5 -46.2,29.7 -204.72,115.57 -158.5,85.85 -151.88,75.94 -49.53,-29.7 102.36,-105.69 241.07,-214.67 208.04,-323.64 -29.74,-112.28 -29.74,-89.15 -52.82,-122.19 0,0 -33.04,-49.54 -33.04,59.45 0,108.98 -95.77,313.69 -175.04,386.38 -79.24,72.65 -184.92,211.33 -165.1,277.36l16.5 19.82c0,0 42.95,-135.38 151.93,-171.71 108.94,-33.03 283.99,-105.69 359.97,-59.44 56.11,33.03 128.76,122.18 145.26,221.25 13.21,-9.88 26.45,-23.13 39.62,-36.29 0,-23.12 -3.3,-46.24 -9.88,-69.36 -36.36,-118.89 -175,-284.03 -231.2,-267.49z"/>
   <path class="fil0" d="M1589.56 1555.78c0,0 -59.44,59.45 13.2,92.48 72.65,29.7 6.59,-118.89 -13.2,-92.48z"/>
   <path class="fil0" d="M1682.04 1354.33c-92.48,-191.51 -85.86,-260.87 -102.36,-320.31 0,0 -19.87,-72.65 -46.28,-158.52 -19.79,-3.29 -42.91,-9.87 -62.7,-9.87 6.58,19.79 13.17,36.32 16.5,52.82 29.7,108.98 16.5,297.2 62.74,369.89 0,0 49.53,85.85 72.66,184.89 23.07,99.09 42.95,95.8 115.56,175.04 59.45,69.33 155.22,171.72 184.92,303.81 16.54,-19.83 29.75,-39.66 42.95,-62.78 -3.29,-9.88 -3.29,-19.79 -6.62,-29.67 -39.62,-112.31 -184.92,-317.06 -277.36,-505.31z"/>
   <path class="fil0" d="M1698.54 934.99c-32.99,-16.55 -69.36,-33.04 -105.69,-42.95 42.95,217.96 82.56,336.81 175.04,455.7 79.24,102.36 217.92,323.65 264.17,416.09 16.54,-42.91 26.45,-89.15 33.04,-135.39 -19.83,-46.24 -49.53,-102.36 -102.36,-178.34 -171.75,-237.74 -221.29,-373.13 -264.19,-515.1z"/>
   <path class="fil0" d="M1777.78 984.48c72.65,184.92 191.55,402.87 277.4,485.43 3.33,3.3 6.58,6.63 9.92,9.92 -19.83,-208.08 -128.81,-386.37 -287.32,-495.35z"/>
   <path class="fil0" d="M1715.04 1948.75c-102.36,-102.36 -373.18,-36.33 -429.29,56.15 -42.95,69.35 -142.02,128.8 -188.22,151.93 19.8,9.91 42.91,16.5 62.74,26.41 79.24,-16.5 373.14,-148.59 498.65,-115.59 33.04,9.91 59.41,29.74 79.24,56.15 19.83,-9.92 36.33,-23.09 52.83,-36.33 -16.5,-49.53 -39.59,-99.06 -75.94,-138.72z"/>
   <path class="fil0" d="M1335.28 2199.73c-13.21,6.63 -26.41,13.21 -36.33,19.83 26.41,3.29 56.16,6.62 82.57,6.62 99.06,0 194.84,-19.83 277.4,-59.45 -13.24,-6.62 -26.45,-13.24 -36.36,-19.86 -49.49,-19.79 -191.51,6.62 -287.28,52.86z"/>
   <path class="fil0" d="M2261.34 1002.94l0 187.86c0,6.78 3.44,10.22 10.26,10.22l102.52 0c6.78,0 10.03,-3.44 10.03,-10.22l0 -71.72c0,-3.44 3.57,-6.85 7.13,-6.85l242.22 0 0 3.41 -385.8 549.91c-3.41,3.4 -3.41,10.22 -3.41,13.68l0 102.47c0,6.82 3.41,10.23 10.23,10.23l522.59 0c6.82,0 10.39,-3.41 10.39,-10.23l0 -191.27c0,-6.86 -3.56,-10.27 -10.39,-10.27l-102.43 0c-6.82,0 -10.39,3.41 -10.39,10.27l0 71.72c0,3.41 -3.26,6.81 -6.82,6.81l-256.12 0 0 -3.4 386.15 -549.91c3.26,-3.41 3.26,-6.82 3.26,-10.27l0 -102.43c0,-6.85 -3.26,-10.26 -10.39,-10.26l-508.76 0c-6.82,-3.41 -10.26,0 -10.26,10.26z"/>
   <path class="fil0" d="M3186.96 1341.08c20.43,13.63 34.06,30.71 40.87,54.62 3.57,13.68 6.78,30.73 6.78,47.81 0,3.41 -3.22,6.85 -6.78,6.85l-221.8 0c-3.57,0 -6.82,-3.44 -6.82,-6.85 0,-17.09 3.25,-34.14 6.82,-47.81 16.85,-47.8 54.47,-71.7 112.5,-71.7 27.56,-3.41 48,3.41 68.42,17.09zm-215.29 -88.84c-40.87,27.35 -71.67,64.9 -85.27,116.15 -13.63,37.55 -20.41,85.39 -20.41,140.06 0,51.21 6.78,99.02 20.41,140.01 13.6,47.8 44.4,88.8 85.27,116.15 41.19,27.31 92.41,40.96 150.44,40.96 98.91,0 177.68,-30.72 232.15,-95.62 3.56,-6.82 3.56,-10.23 0,-17.09l-68.42 -61.48c-6.78,-3.37 -10.04,-3.37 -16.86,3.45 -34.36,37.58 -78.45,54.62 -133.23,54.62 -64.85,0 -106.04,-27.31 -126.46,-85.39 -6.82,-13.64 -6.82,-30.72 -6.82,-44.4 0,-3.44 3.57,-6.82 6.82,-6.82l348.53 0c6.82,0 13.64,-3.41 13.64,-10.26 0,-75.12 -6.82,-133.2 -20.42,-170.78 -13.63,-47.8 -44.44,-88.79 -85.63,-116.11 -40.82,-27.31 -92.08,-41.03 -146.87,-41.03 -58.03,-3.37 -105.69,10.26 -146.87,37.58z"/>
   <path class="fil0" d="M3887 1402.56c7.13,23.87 10.35,61.45 10.35,105.89 0,44.39 -3.22,81.97 -10.35,105.84 -13.64,47.85 -51.21,71.74 -105.72,71.74 -54.79,0 -92.09,-23.9 -106,-71.74 -6.82,-23.87 -10.07,-61.45 -10.07,-105.84 0,-44.44 3.25,-82.02 10.07,-105.89 13.59,-47.85 51.21,-71.74 106,-71.74 54.51,-3.41 88.88,20.49 105.72,71.74zm-426.7 -399.62l0 92.2c0,6.86 3.25,10.23 10.07,10.23l51.22 0c3.57,0 6.78,3.45 6.78,6.86l0 556.72c0,3.46 -3.21,6.82 -6.78,6.82l-51.22 0c-6.82,0 -10.07,3.46 -10.07,10.27l0 92.21c0,6.82 3.25,10.26 10.07,10.26l177.67 0c6.78,0 10.35,-3.44 10.35,-10.26l0 -40.99c30.8,44.44 82.06,68.31 150.12,68.31 102.47,0 167.33,-44.37 198.13,-136.61 13.59,-40.98 20.41,-95.61 20.41,-160.5 0,-64.93 -6.82,-119.57 -20.41,-160.55 -30.8,-92.21 -95.66,-136.61 -198.13,-136.61 -68.07,0 -119.32,23.87 -150.12,68.31l0 -276.66c0,-6.85 -3.57,-10.26 -10.35,-10.26l-177.67 0c-3.25,-3.41 -10.07,0 -10.07,10.26z"/>
   <path class="fil0" d="M4327.61 1293.27l0 -58.11c0,-6.78 -3.24,-10.23 -10.03,-10.23l-177.67 0c-6.82,0 -10.39,3.45 -10.39,10.23l0 92.25c0,6.82 3.57,10.22 10.39,10.22l51.21 0c3.57,0 6.78,3.46 6.78,6.87l0 324.46c0,3.46 -3.22,6.82 -6.78,6.82l-51.21 0c-6.82,0 -10.39,3.46 -10.39,10.27l0 92.21c0,6.82 3.57,10.26 10.39,10.26l252.87 0c6.82,0 10.07,-3.44 10.07,-10.26l0 -92.21c0,-6.81 -3.26,-10.27 -10.07,-10.27l-54.79 0c-3.56,0 -6.82,-3.36 -6.82,-6.82l0 -184.44c0,-99.03 40.87,-146.88 126.46,-146.88 13.64,0 34.06,3.46 68.11,10.28 10.35,3.4 13.6,0 13.6,-10.28l0 -102.47c0,-6.78 -3.25,-10.23 -10.04,-10.23 -17.2,-3.41 -37.62,-6.82 -54.78,-6.82 -64.9,-3.44 -112.54,23.91 -146.92,75.17z"/>
   <path class="fil0" d="M4945.93 1552.84l0 44.4c0,64.9 -40.87,95.61 -122.88,95.61 -64.86,0 -95.66,-23.91 -95.66,-71.71 0,-51.22 40.87,-78.57 122.89,-78.57l92.4 0c0,3.41 3.25,6.85 3.25,10.26zm-300.56 -303.97c-6.82,3.37 -10.39,6.82 -10.39,13.64l0 119.56c0,6.82 3.57,10.23 10.39,10.23l102.48 0c6.77,0 10.34,-3.41 10.34,-10.23l0 -51.25c0,-3.41 3.25,-6.82 6.82,-6.82 20.42,-3.41 40.83,-6.86 61.28,-6.86 44.44,0 75.2,6.86 92.41,23.94 16.86,13.63 23.98,40.98 23.98,75.11l0 23.94c0,3.37 -3.57,6.78 -7.12,6.78l-112.51 0c-71.63,0 -126.46,13.71 -167.29,44.44 -41.19,30.72 -61.6,75.12 -61.6,136.64 0,58.03 17.16,99.02 54.78,129.75 34.05,30.76 78.45,44.44 136.49,44.44 75.24,0 126.45,-23.94 157.25,-64.93l0 40.99c0,6.82 3.25,10.26 10.07,10.26l167.29 0c6.82,0 10.39,-3.44 10.39,-10.26l0 -92.21c0,-6.81 -3.57,-10.27 -10.39,-10.27l-51.22 0c-3.25,0 -6.82,-3.36 -6.82,-6.82l0 -259.57c0,-71.75 -16.85,-122.96 -54.46,-153.69 -37.62,-30.76 -95.66,-44.4 -181.25,-44.4 -64.85,0 -126.13,10.23 -180.92,37.58z"/>
   <path class="fil0" d="M5256.88 1173.72c-13.63,40.94 -20.76,112.7 -20.76,218.57 0,112.7 7.13,187.86 20.76,225.41 37.62,126.41 136.49,187.86 290.19,187.86 95.65,0 174.1,-20.5 242.52,-61.45 6.82,-3.41 10.39,-10.26 10.39,-17.09l0 -160.54c0,-6.82 -3.57,-10.27 -10.39,-10.27l-106.04 0c-6.78,0 -10.04,3.44 -10.04,10.27l0 85.39c0,3.4 -3.57,6.86 -6.82,10.27 -27.23,13.63 -61.59,20.5 -102.43,20.5 -48,0 -85.63,-10.23 -109.29,-27.36 -23.98,-17.04 -44.4,-44.39 -54.79,-78.56 -10.03,-30.72 -13.59,-88.76 -13.59,-181.01 0,-92.2 3.56,-150.28 13.59,-181.04 10.39,-34.13 30.81,-61.44 54.79,-78.53 23.67,-17.05 61.29,-27.31 109.29,-27.31 40.83,0 75.2,6.82 102.43,20.5 3.26,3.41 6.82,6.82 6.82,10.26l0 81.94c0,6.86 3.25,10.27 10.04,10.27l106.04 0c6.82,0 10.39,-3.41 10.39,-10.27l0 -160.51c0,-6.86 -3.57,-13.71 -10.39,-17.09 -61.6,-40.98 -143.3,-61.48 -238.95,-61.48 -157.26,-6.86 -252.92,58.07 -293.75,191.27z"/>
   <path class="fil0" d="M6264.3 1402.56c6.78,23.87 10.35,61.45 10.35,105.89 0,44.39 -3.57,78.53 -10.35,105.84 -16.89,47.85 -54.51,75.15 -105.72,75.15 -54.79,0 -88.84,-23.9 -106.05,-75.15 -6.77,-23.87 -10.03,-58.08 -10.03,-105.84 0,-44.44 3.26,-78.57 10.03,-105.89 13.64,-47.85 51.26,-75.15 106.05,-75.15 54.46,0 92.08,23.9 105.72,75.15zm-252.6 -150.32c-41.19,27.35 -71.67,64.9 -85.57,116.15 -13.64,37.55 -20.46,85.39 -20.46,140.06 0,54.62 6.82,102.43 20.46,140.01 13.91,47.8 44.39,88.8 85.57,116.15 40.83,27.31 92.09,40.96 146.88,40.96 58.03,0 105.72,-13.64 146.87,-40.96 40.87,-27.35 68.1,-64.9 85.26,-116.15 13.64,-37.58 20.46,-85.39 20.46,-140.01 0,-54.67 -6.82,-102.52 -20.46,-140.06 -13.59,-47.8 -44.39,-88.79 -85.26,-116.15 -41.15,-27.31 -92.41,-40.95 -146.87,-40.95 -58.04,0 -106.05,13.64 -146.88,40.95z"/>
   <path class="fil0" d="M6872.24 1402.56c6.78,23.87 10.35,61.45 10.35,105.89 0,44.39 -3.57,81.97 -10.35,105.84 -13.64,47.85 -51.26,71.74 -105.72,71.74 -54.79,0 -88.84,-23.9 -106,-71.74 -6.82,-23.87 -10.07,-61.45 -10.07,-105.84 0,-44.44 3.26,-82.02 10.07,-105.89 13.59,-47.85 51.21,-71.74 106,-71.74 58.03,-3.41 92.08,20.49 105.72,71.74zm-58.07 -399.62l0 92.2c0,6.86 3.57,10.23 10.39,10.23l51.26 0c3.22,0 6.78,3.45 6.78,6.86l0 163.92c-30.81,-44.36 -82.02,-68.3 -150.44,-68.3 -102.47,0 -167.28,44.4 -198.08,136.65 -13.64,40.98 -20.46,95.65 -20.46,160.5 0,64.93 6.82,119.56 20.46,160.56 30.8,92.24 95.61,136.64 198.08,136.64 68.43,0 119.64,-23.94 150.44,-68.34l0 40.99c0,6.85 3.57,10.23 10.38,10.23l177.37 0c6.82,0 10.39,-3.37 10.39,-10.23l0 -92.2c0,-6.87 -3.57,-10.23 -10.39,-10.23l-51.22 0c-3.26,0 -6.82,-3.46 -6.82,-6.86l0 -666.02c0,-6.85 -3.25,-10.26 -10.07,-10.26l-177.67 0c-6.82,0 -10.39,3.41 -10.39,13.67z"/>
   <path class="fil0" d="M7500.91 1341.08c20.42,13.63 34.06,30.71 40.87,54.62 3.57,13.68 6.78,30.73 6.78,47.81 0,3.41 -3.22,6.85 -6.78,6.85l-222.11 0c-3.25,0 -6.82,-3.44 -6.82,-6.85 0,-17.09 3.57,-34.14 6.82,-47.81 17.17,-47.8 54.79,-71.7 112.82,-71.7 27.23,-3.41 47.65,3.41 68.42,17.09zm-215.29 -88.84c-40.87,27.35 -71.67,64.9 -85.28,116.15 -13.63,37.55 -20.76,85.39 -20.76,140.06 0,51.21 6.82,99.02 20.76,140.01 13.6,47.8 44.4,88.8 85.28,116.15 40.83,27.31 92.09,40.96 150.12,40.96 99.22,0 177.67,-30.72 232.49,-95.62 3.22,-6.82 3.22,-10.23 0,-17.09l-68.45 -61.48c-6.78,-3.37 -10.04,-3.37 -17.17,3.45 -34.05,37.58 -78.45,54.62 -132.92,54.62 -65.17,0 -106.04,-27.31 -126.46,-85.39 -6.82,-13.64 -6.82,-30.72 -6.82,-44.4 0,-3.44 3.25,-6.82 6.82,-6.82l348.22 0c6.82,0 13.64,-3.41 13.64,-10.26 0,-75.12 -6.82,-133.2 -20.42,-170.78 -13.64,-47.8 -44.44,-88.79 -85.31,-116.11 -41.15,-27.31 -92.4,-41.03 -146.87,-41.03 -58.03,-3.37 -106.04,10.26 -146.87,37.58z"/>
   <path class="fil0" d="M2401.98 2126.85l-74.41 0 39.07 -110.03 35.34 110.03zm32.09 92.29l56.74 0 -95.66 -262.67 -60.46 0 -95.85 262.67 56.78 0 17.78 -49.69 106.39 0 14.26 49.69z"/>
   <path class="fil0" d="M2675.3 2112.67c0,39.03 -24.65,60.35 -56.74,60.35 -28.17,0 -56.7,-21.32 -56.7,-63.91 0,-42.6 28.53,-60.35 56.7,-60.35 32.09,3.57 56.74,24.88 56.74,63.91zm-163.06 0c0,63.91 42.48,110.04 95.61,110.04 32.09,0 57.06,-14.23 67.44,-35.5l0 31.94 53.53 0 0 -280.43 -53.53 0 0 99.38c-13.95,-21.28 -38.91,-31.94 -67.44,-31.94 -53.13,0 -95.61,42.6 -95.61,106.51z"/>
   <polygon class="fil0" points="2760.58,2009.72 2835.19,2219.13 2899.07,2219.13 2977.16,2009.72 2920.45,2009.72 2867.28,2169.45 2817.36,2009.72 "/>
   <path class="fil0" d="M3197.35 2151.69l-56.74 0c-7.13,14.19 -17.83,24.89 -42.79,24.89 -24.65,0 -46.05,-17.79 -49.61,-49.73l152.71 0c0,-7.09 0,-14.18 0,-21.31 0,-63.88 -42.79,-102.95 -103.09,-102.95 -60.35,0 -106.39,42.64 -106.39,106.52 0,67.48 42.48,106.5 106.39,106.5 53.17,7.09 88.83,-24.88 99.53,-63.91zm-99.53 -102.94c28.53,0 49.93,17.75 49.93,46.12l-99.54 0c3.57,-28.37 24.96,-46.12 49.61,-46.12z"/>
   <path class="fil0" d="M3292.97 2116.19c0,-39.02 17.83,-53.25 49.96,-53.25l13.91 0 0 -56.78c-28.17,0 -49.61,14.19 -63.87,35.5l0 -31.94 -53.14 0 0 209.41 53.14 0 0 -102.95z"/>
   <path class="fil0" d="M3403.24 2155.26c0,49.65 28.21,63.88 67.44,63.88l31.78 0 0 -46.12 -24.65 0c-17.83,0 -21.4,-7.13 -21.4,-21.32l0 -99.37 46.05 0 0 -42.6 -46.05 0 0 -53.25 -53.17 0 0 53.25 -24.96 0 0 42.6 24.96 0 0 102.94z"/>
   <path class="fil0" d="M3566.33 1984.88c17.83,0 32.09,-14.19 32.09,-31.98 0,-17.76 -14.26,-31.94 -32.09,-31.94 -17.52,0 -31.78,14.18 -31.78,31.94 0,17.79 14.26,31.98 31.78,31.98zm-28.22 234.26l53.18 0 0 -209.41 -53.18 0 0 209.41z"/>
   <path class="fil0" d="M3807.88 2158.79c0,-78.06 -117.06,-53.25 -117.06,-92.29 0,-10.66 10.39,-21.28 28.22,-21.28 21.39,0 32.09,10.61 35.66,28.41l49.61 0c-3.57,-42.64 -32.09,-67.48 -85.27,-67.48 -53.18,0 -81.71,28.41 -81.71,63.91 0,78.1 117.37,53.22 117.37,88.72 0,10.66 -10.7,21.31 -32.09,21.31 -21.39,0 -35.35,-10.65 -38.91,-28.41l-53.53 0c3.57,39.03 39.26,71.01 92.44,71.01 53.18,0 85.28,-28.41 85.28,-63.91z"/>
   <path class="fil0" d="M3878.89 1984.88c17.82,0 31.77,-14.19 31.77,-31.98 0,-17.76 -13.95,-31.94 -31.77,-31.94 -17.83,0 -32.09,14.18 -32.09,31.94 -3.57,17.79 10.7,31.98 32.09,31.98zm-28.53 234.26l53.17 0 0 -209.41 -53.17 0 0 209.41z"/>
   <path class="fil0" d="M4102.61 2219.13l53.17 0 0 -124.26c0,-56.78 -35.66,-88.72 -85.26,-88.72 -28.53,0 -49.61,10.66 -63.88,28.41l0 -24.84 -53.18 0 0 209.41 53.18 0 0 -117.17c0,-31.9 17.83,-53.22 46.05,-53.22 28.53,0 46.36,17.75 46.36,53.22l0 117.17 3.57 0z"/>
   <path class="fil0" d="M4354.54 2112.67c0,39.03 -24.96,60.35 -56.74,60.35 -28.53,0 -56.74,-21.32 -56.74,-63.91 0,-42.6 28.22,-60.35 56.74,-60.35 31.78,3.57 56.74,24.88 56.74,63.91zm-163.41 0c0,63.91 42.8,110.04 95.97,110.04 31.78,0 56.74,-17.8 67.44,-35.5l0 31.94c0,39.07 -21.39,56.78 -53.18,56.78 -24.96,0 -46.36,-14.19 -49.93,-31.9l-53.18 0c3.57,49.65 46.05,78.07 106.67,78.07 67.44,0 102.78,-46.17 102.78,-102.95l0 -209.41 -53.17 0 0 28.37c-14.26,-17.75 -35.66,-31.94 -67.44,-31.94 -53.18,0 -95.97,42.6 -95.97,106.51z"/>
   <polygon class="fil0" points="4702.43,1956.47 4549.72,1956.47 4549.72,2219.13 4702.43,2219.13 4702.43,2176.58 4602.89,2176.58 4602.89,2105.54 4691.73,2105.54 4691.73,2062.93 4602.89,2062.93 4602.89,1999.06 4702.43,1999.06 "/>
   <polygon class="fil0" points="4865.52,2219.13 4926.15,2219.13 4858.71,2112.67 4926.15,2009.72 4869.09,2009.72 4830.19,2073.63 4787.7,2009.72 4727.08,2009.72 4798.09,2112.67 4730.65,2219.13 4784.14,2219.13 4823.05,2155.26 "/>
   <path class="fil0" d="M5117.77 2112.67c0,39.03 -28.53,63.91 -56.74,63.91 -28.53,0 -57.06,-21.32 -57.06,-60.39 0,-39.02 28.53,-60.35 57.06,-60.35 31.78,-3.52 56.74,17.8 56.74,56.83zm-110.22 -74.57l0 -31.94 -53.18 0 0 308.83 53.18 0 0 -127.79c14.26,17.71 35.66,31.94 67.44,31.94 53.48,0 95.96,-42.56 95.96,-110.03 0,-63.88 -42.48,-106.52 -95.96,-106.52 -31.78,3.57 -53.18,17.76 -67.44,35.5z"/>
   <path class="fil0" d="M5401.8 2151.69l-57.06 0c-7.13,14.19 -17.47,24.89 -42.47,24.89 -24.96,0 -46.05,-17.79 -49.61,-49.73l152.71 0c0,-7.09 0,-14.18 0,-21.31 0,-63.88 -42.8,-102.95 -103.09,-102.95 -60.31,0 -106.36,42.64 -106.36,106.52 0,67.48 42.48,106.5 106.36,106.5 53.17,7.09 85.26,-24.88 99.53,-63.91zm-99.53 -102.94c28.56,0 49.6,17.75 49.6,46.12l-99.22 0c3.57,-28.37 24.65,-46.12 49.61,-46.12z"/>
   <path class="fil0" d="M5497.45 2116.19c0,-39.02 17.83,-53.25 49.61,-53.25l14.26 0 0 -56.78c-28.22,0 -49.61,14.19 -63.88,35.5l0 -31.94 -53.18 0 0 209.41 53.18 0 0 -102.95z"/>
   <path class="fil0" d="M5604.16 2155.26c0,49.65 28.17,63.88 67.43,63.88l31.74 0 0 -46.12 -24.96 0c-17.52,0 -21.09,-7.13 -21.09,-21.32l0 -99.37 46.05 0 0 -42.6 -46.05 0 0 -53.25 -53.13 0 0 53.25 -25.01 0 0 42.6 25.01 0 0 102.94z"/>
   <path class="fil0" d="M5905.66 2158.79c0,-78.06 -117.05,-53.25 -117.05,-92.29 0,-10.66 10.7,-21.28 28.21,-21.28 21.4,0 32.09,10.61 35.66,28.41l49.61 0c-3.56,-42.64 -31.78,-67.48 -85.27,-67.48 -53.17,0 -81.39,28.41 -81.39,63.91 0,78.1 117.05,53.22 117.05,88.72 0,10.66 -10.7,21.31 -32.09,21.31 -21.07,0 -35.34,-10.65 -38.91,-28.41l-53.18 0c3.56,39.03 38.91,71.01 92.08,71.01 53.54,0 85.27,-28.41 85.27,-63.91z"/>
  </g>
 </g>
</svg>
